<?xml version="1.0" standalone="no"?>
<!DOCTYPE svg PUBLIC "-//W3C//DTD SVG 20010904//EN"
 "http://www.w3.org/TR/2001/REC-SVG-20010904/DTD/svg10.dtd">
<svg version="1.0" xmlns="http://www.w3.org/2000/svg"
 width="500.000000pt" height="500.000000pt" viewBox="0 0 500.000000 500.000000"
 preserveAspectRatio="xMidYMid meet">
<metadata>
Created by potrace 1.11, written by Peter Selinger 2001-2013
</metadata>
<g transform="translate(0.000000,500.000000) scale(0.100000,-0.100000)"
fill="#000000" stroke="none">
<path d="M2655 4454 c-515 -93 -926 -453 -1134 -991 -22 -58 -67 -225 -77
-287 -3 -21 -8 -48 -10 -60 -2 -11 -6 -59 -9 -106 -3 -47 -8 -100 -11 -119 -3
-19 -60 -127 -126 -240 -152 -259 -166 -286 -174 -344 -18 -129 87 -254 225
-272 55 -7 88 -21 100 -43 6 -11 11 -100 11 -205 2 -179 8 -245 31 -297 50
-114 100 -184 171 -241 114 -90 205 -119 383 -124 129 -4 202 -10 240 -22 52
-15 123 -54 152 -84 58 -61 66 -95 67 -280 1 -181 6 -199 55 -199 15 0 36 6
47 14 17 13 19 29 21 181 1 123 -2 180 -14 218 -56 193 -249 299 -536 296 -62
-1 -134 4 -162 10 -157 37 -298 183 -320 333 -4 26 -8 130 -10 230 -1 101 -6
192 -10 203 -30 74 -91 117 -190 133 -60 10 -75 16 -102 46 -30 33 -39 62 -33
106 1 8 64 123 140 255 76 132 144 260 150 284 6 24 13 80 15 125 17 366 177
728 435 986 119 119 210 185 355 258 153 77 306 119 465 128 113 7 127 10 146
39 13 21 14 28 2 52 -13 28 -14 28 -113 30 -55 1 -136 -5 -180 -13z"/>
<path d="M2745 4070 c-22 -4 -51 -11 -65 -14 -327 -67 -621 -350 -724 -699
-32 -110 -38 -144 -42 -267 -6 -221 57 -433 188 -622 250 -362 289 -428 333
-558 l22 -65 -28 -26 c-22 -20 -27 -32 -23 -54 6 -33 30 -54 62 -55 12 0 22
-6 23 -12 0 -7 2 -22 4 -33 2 -11 6 -51 8 -90 8 -107 -16 -100 390 -100 314 0
348 2 367 17 12 11 20 31 21 50 1 48 8 120 14 146 4 17 13 22 35 22 60 0 78
88 23 113 -28 13 -26 33 17 142 25 62 46 104 106 210 9 17 69 108 132 204 183
277 226 364 258 522 23 116 15 299 -21 428 -96 353 -372 633 -713 722 -86 23
-319 34 -387 19z m45 -534 c25 -7 56 -19 70 -26 22 -9 39 -7 105 16 133 45
285 39 397 -15 63 -30 76 -47 82 -111 6 -49 20 -165 31 -245 2 -16 6 -57 10
-90 4 -33 8 -71 11 -85 2 -14 6 -55 10 -91 5 -59 4 -69 -15 -88 -27 -27 -41
-26 -99 4 -104 54 -242 56 -357 3 -68 -31 -190 -33 -255 -5 -140 62 -278 61
-395 -1 -42 -23 -71 -21 -92 7 -12 15 -11 89 2 171 2 14 6 48 9 75 3 28 10 95
16 150 6 55 14 127 17 160 9 94 15 107 64 134 102 58 272 74 389 37z m-104
-846 c32 -7 81 -22 109 -34 62 -28 127 -26 196 4 29 12 62 24 73 26 12 2 41 7
66 12 129 24 334 -30 371 -99 16 -31 3 -66 -29 -77 -23 -8 -39 -5 -88 19 -32
16 -75 31 -94 33 -31 4 -40 -2 -90 -54 -30 -32 -70 -83 -89 -114 l-34 -57 0
-253 0 -254 -43 -4 c-84 -6 -79 -19 -79 217 l0 210 -60 0 -60 0 -2 -209 c-1
-115 -4 -210 -6 -212 -6 -6 -107 -7 -113 -1 -3 2 -5 117 -5 254 l1 250 -36 59
c-19 32 -61 85 -92 117 -65 66 -68 66 -185 15 -64 -28 -70 -28 -93 -13 -23 15
-29 30 -25 65 3 25 46 57 108 80 102 39 182 44 299 20z m489 -988 c-3 -8 -5
-33 -5 -56 l0 -43 -267 0 c-184 0 -270 4 -275 11 -8 12 -11 90 -4 97 2 2 129
4 280 4 226 0 275 -2 271 -13z"/>
<path d="M2574 3429 c-22 -4 -57 -14 -77 -23 -32 -13 -37 -20 -38 -48 -1 -38
-3 -58 -14 -153 -10 -84 -11 -90 -20 -184 -7 -71 -7 -73 13 -67 101 32 236 23
355 -23 16 -6 32 -9 35 -7 9 5 8 448 -1 462 -18 31 -174 57 -253 43z"/>
<path d="M3095 3433 c-11 -2 -46 -11 -77 -20 -46 -13 -58 -20 -59 -37 -3 -87
-1 -447 3 -451 2 -3 31 4 64 15 79 28 107 32 188 32 65 -1 104 -6 150 -19 10
-3 16 -1 13 3 -2 5 -8 41 -11 79 -4 39 -8 81 -10 95 -3 14 -7 54 -11 90 -12
128 -17 165 -26 176 -20 24 -165 48 -224 37z"/>
<path d="M2758 2523 c10 -16 32 -52 47 -80 l28 -53 68 0 69 0 24 48 c14 26 35
62 47 80 24 37 24 37 -27 15 -56 -24 -178 -25 -226 -1 -49 24 -53 23 -30 -9z"/>
<path d="M3590 2188 c-14 -5 -20 -16 -20 -40 0 -18 -1 -287 -3 -598 -2 -558
-2 -566 -24 -605 -43 -81 -116 -126 -202 -127 -116 0 -206 82 -225 206 -4 22
-9 42 -12 45 -11 12 -309 9 -316 -3 -26 -39 3 -174 58 -272 67 -122 230 -236
374 -263 96 -17 235 -8 320 22 192 68 338 235 358 409 10 81 9 1214 0 1224
-10 10 -282 12 -308 2z"/>
<path d="M2652 1372 c-33 -5 -55 -43 -43 -75 6 -14 19 -30 29 -36 11 -6 117
-10 259 -10 228 0 242 1 267 20 31 24 33 48 7 80 -19 23 -20 23 -257 24 -132
0 -249 -1 -262 -3z"/>
</g>
</svg>
